Coordinates
version=1
nRows=22
nColumns=32
inDegrees=yes

Units are S.I. units (second, meters, Newtons, ...)
If the header above contains a line with 'inDegrees', this indicates whether rotational values are in degrees (yes) or radians (no).

endheader
time	pelvis_tilt	pelvis_list	pelvis_rotation	pelvis_tx	pelvis_ty	pelvis_tz	hip_flexion_r	hip_adduction_r	hip_rotation_r	knee_angle_r	knee_adduction_r	med_cond_adduction_r	lat_cond_adduction_r	patella_r_constrained_knee_angle	ankle_angle_r	subtalar_angle_r	mtp_angle_r	hip_flexion_l	hip_adduction_l	hip_rotation_l	knee_angle_l	knee_adduction_l	med_cond_adduction_l	lat_cond_adduction_l	patella_l_constrained_knee_angle	ankle_angle_l	subtalar_angle_l	mtp_angle_l	lumbar_extension	lumbar_bending	lumbar_rotation
      0.89000000	      1.44182525	      9.51672351	     -5.70009959	      0.61363950	      0.94152252	      0.18234867	     24.67986162	    -17.47390783	     -0.04877053	    -66.68777844	      5.99201534	      0.00000000	      0.00000000	     -1.16392130	     -3.59886646	     -0.74139233	      0.00000000	     -2.17458178	     10.00999601	    -22.92560207	     -4.57005888	      1.94202901	     -0.00000000	     -0.00000000	     -0.07976257	     -0.98602648	      6.69661629	     -0.00000000	      0.26296439	    -11.18204548	      8.46477328
      0.89500000	      1.43439930	      9.37904637	     -5.44424132	      0.61977762	      0.94200826	      0.18182064	     25.07185815	    -17.14483779	      0.25765640	    -65.66083941	      6.55423504	     -0.00000000	     -0.00000000	     -1.14599784	     -3.06195990	     -0.80320603	     -0.00000000	     -2.81701392	      9.89126277	    -22.73272684	     -4.22460798	      2.07810829	     -0.00000000	     -0.00000000	     -0.07373332	     -1.03548419	      6.87149557	      0.00000000	      0.15326376	    -10.97808784	      8.33444337
      0.90000000	      1.38707028	      9.29187463	     -5.13432457	      0.62594473	      0.94235124	      0.18119254	     25.48202267	    -16.90137548	      0.51279195	    -64.59042783	      7.08575317	     -0.00000000	     -0.00000000	     -1.12731563	     -2.53401871	     -0.88688172	     -0.00000000	     -3.41543672	      9.84699165	    -22.42943425	     -3.85398016	      2.16589766	     -0.00000000	     -0.00000000	     -0.06726464	     -1.14196356	      7.00346685	     -0.00000000	      0.10022496	    -10.83079112	      8.15608472
      0.90500000	      1.42492383	      9.08239801	     -4.83479264	      0.63207756	      0.94287869	      0.18059072	     25.70689008	    -16.51836959	      0.63613872	    -63.35353022	      7.51428133	     -0.00000000	     -0.00000000	     -1.10572770	     -2.15746630	     -1.01662345	     -0.00000000	     -4.08195695	      9.61399133	    -22.20061528	     -3.59330445	      2.34537815	      0.00000000	      0.00000000	     -0.06271499	     -1.13936869	      7.15856625	     -0.00000000	     -0.08182992	    -10.57474468	      7.91311572
      0.91000000	      1.43544518	      8.91823046	     -4.48642934	      0.63823470	      0.94329055	      0.17987818	     25.93628736	    -16.22577638	      0.68928736	    -62.06598228	      7.89746677	     -0.00000000	     -0.00000000	     -1.08325574	     -1.84336904	     -1.12961812	      0.00000000	     -4.70888515	      9.44797965	    -21.90976404	     -3.32461793	      2.46779852	     -0.00000000	     -0.00000000	     -0.05802553	     -1.17211593	      7.28508397	     -0.00000000	     -0.23576742	    -10.34808671	      7.67283017
      0.91500000	      1.62430038	      8.46665418	     -3.98825798	      0.64449703	      0.94424875	      0.17878389	     25.69121622	    -15.69711446	      0.33975734	    -60.46945391	      8.14281195	     -0.00000000	     -0.00000000	     -1.05539107	     -1.58665870	     -1.41549102	     -0.00000000	     -5.65478815	      9.02412409	    -21.22189026	     -2.85048093	      2.58637605	     -0.00000000	     -0.00000000	     -0.04975028	     -1.30039223	      7.11035167	      0.00000000	     -0.67836615	     -9.70348931	      7.24323696
      0.92000000	      1.70009736	      8.20105835	     -3.62415223	      0.65068797	      0.94470657	      0.17803210	     25.73023241	    -15.30398436	      0.19586992	    -58.98870071	      8.36688307	      0.00000000	      0.00000000	     -1.02954705	     -1.37603470	     -1.66941110	      0.00000000	     -6.33070555	      8.70767856	    -20.96361160	     -2.64673466	      2.74409435	     -0.00000000	     -0.00000000	     -0.04619423	     -1.25180884	      7.29487799	      0.00000000	     -0.90798437	     -9.42685037	      6.79672458
      0.92500000	      1.67172966	      8.13258646	     -3.17606674	      0.65693507	      0.94482939	      0.17705183	     25.91259053	    -15.20291542	      0.06116320	    -57.53420944	      8.59833932	      0.00000000	      0.00000000	     -1.00416139	     -1.08189369	     -1.78249027	      0.00000000	     -6.91706581	      8.67596843	    -20.43835559	     -2.32272963	      2.78285292	     -0.00000000	     -0.00000000	     -0.04053928	     -1.36237344	      7.22546282	      0.00000000	     -0.99710970	     -9.22133780	      6.55527437
      0.93000000	      1.62435447	      8.13178103	     -2.85729270	      0.66317129	      0.94474901	      0.17639692	     26.17708319	    -15.09687220	      0.04503604	    -56.09641257	      8.77092402	      0.00000000	      0.00000000	     -0.97906710	     -0.85699458	     -1.95590195	     -0.00000000	     -7.35952831	      8.63144155	    -20.38887576	     -2.27776739	      2.86582975	     -0.00000000	     -0.00000000	     -0.03975454	     -1.23965677	      7.66542472	      0.00000000	     -1.00759535	     -9.23403658	      6.24828706
      0.93500000	      1.67827175	      7.95144171	     -2.41061700	      0.66940813	      0.94497204	      0.17540348	     26.14584057	    -14.87231942	     -0.24518440	    -54.44470937	      8.86947065	     -0.00000000	     -0.00000000	     -0.95023944	     -0.72333194	     -2.24708291	     -0.00000000	     -7.99035052	      8.43082693	    -19.99130785	     -2.07520015	      2.93389775	      0.00000000	      0.00000000	     -0.03621908	     -1.21310625	      7.76115635	     -0.00000000	     -1.20471087	     -8.96076878	      5.83959202
      0.94000000	      1.84932165	      7.58979760	     -1.83686189	      0.67569776	      0.94550802	      0.17402207	     25.80118974	    -14.54366634	     -0.82996006	    -52.58000468	      8.90406168	     -0.00000000	     -0.00000000	     -0.91769420	     -0.72345851	     -2.62755737	     -0.00000000	     -8.79131602	      8.04548580	    -19.39728992	     -1.80139986	      2.99798617	      0.00000000	      0.00000000	     -0.03144036	     -1.23528698	      7.71300087	     -0.00000000	     -1.58771276	     -8.42623340	      5.25646332
      0.94500000	      1.72170281	      7.72320864	     -1.44373197	      0.68192217	      0.94504475	      0.17315079	     26.10719041	    -14.67053978	     -0.94824179	    -51.06298092	      8.99695623	      0.00000000	      0.00000000	     -0.89121714	     -0.54729674	     -2.84132680	      0.00000000	     -9.14438282	      8.19657985	    -19.09939792	     -1.69835311	      2.97047027	      0.00000000	      0.00000000	     -0.02964185	     -1.17015821	      7.90578813	      0.00000000	     -1.50729237	     -8.55155042	      4.94000203
      0.95000000	      1.87229385	      7.40838126	     -0.83303596	      0.68821538	      0.94539031	      0.17164211	     25.73901584	    -14.43693872	     -1.63397158	    -49.12286721	      8.96819482	     -0.00000000	     -0.00000000	     -0.85735577	     -0.60222225	     -3.27172690	     -0.00000000	     -9.90910102	      7.86025711	    -18.44621103	     -1.41857612	      2.99113998	      0.00000000	      0.00000000	     -0.02475882	     -1.19208514	      7.81386461	     -0.00000000	     -1.85055423	     -8.07960921	      4.27497621
      0.95500000	      1.90713345	      7.31540801	     -0.37057744	      0.69445351	      0.94526667	      0.17049671	     25.65105837	    -14.37437369	     -2.02471444	    -47.31664907	      8.97516656	     -0.00000000	     -0.00000000	     -0.82583132	     -0.61897998	     -3.70045241	      0.00000000	    -10.49458501	      7.77047328	    -17.98112373	     -1.21802699	      2.97854267	     -0.00000000	     -0.00000000	     -0.02125858	     -1.13859762	      7.79753093	      0.00000000	     -2.02494852	     -7.75241301	      4.03798930
      0.96000000	      1.77675397	      7.44625071	      0.09702919	      0.70067331	      0.94465566	      0.16929613	     25.84984024	    -14.59013256	     -2.36485156	    -45.67034224	      8.96400720	     -0.00000000	     -0.00000000	     -0.79709784	     -0.53059279	     -3.95947758	      0.00000000	    -10.84761735	      7.95375640	    -17.54501216	     -1.09010523	      2.86180634	     -0.00000000	     -0.00000000	     -0.01902593	     -1.08533334	      7.87927847	      0.00000000	     -1.96726860	     -7.87741442	      3.54502728
      0.96500000	      1.66175635	      7.60581754	      0.50034887	      0.70694237	      0.94396367	      0.16824047	     26.02057012	    -14.81664217	     -2.66788854	    -43.98955594	      8.94326438	      0.00000000	      0.00000000	     -0.76776259	     -0.47963452	     -4.26933436	     -0.00000000	    -11.14776411	      8.10779020	    -17.41351221	     -1.15858389	      2.79739673	     -0.00000000	     -0.00000000	     -0.02022110	     -0.87289137	      8.32963232	      0.00000000	     -1.89487535	     -8.02370464	      3.14886543
      0.97000000	      1.66689743	      7.56825605	      1.09983078	      0.71323583	      0.94362898	      0.16661998	     25.85712877	    -14.95964688	     -3.38697813	    -42.11229091	      8.85160611	     -0.00000000	     -0.00000000	     -0.73499813	     -0.50315011	     -4.54388120	      0.00000000	    -11.75299450	      8.15014397	    -16.63212505	     -0.81535310	      2.62313313	      0.00000000	      0.00000000	     -0.01423060	     -0.94974177	      8.06661577	     -0.00000000	     -2.05341318	     -7.69729739	      2.76923842
      0.97500000	      1.56104330	      7.70734355	      1.53393499	      0.71945721	      0.94287435	      0.16545247	     25.96764871	    -15.19135358	     -3.86524310	    -40.38722113	      8.72836679	      0.00000000	      0.00000000	     -0.70488998	     -0.49702296	     -4.87188280	     -0.00000000	    -12.11145223	      8.31350866	    -16.30193961	     -0.76612843	      2.52416149	      0.00000000	      0.00000000	     -0.01337146	     -0.80455541	      8.23203431	     -0.00000000	     -2.02069822	     -7.76429500	      2.40221393
      0.98000000	      1.51634515	      7.71889067	      2.03751599	      0.72571645	      0.94229124	      0.16409604	     25.88157212	    -15.32277678	     -4.56198042	    -38.50518517	      8.54647722	      0.00000000	      0.00000000	     -0.67204226	     -0.57024212	     -5.16015380	     -0.00000000	    -12.57440770	      8.34366104	    -15.84312566	     -0.63799616	      2.40411509	     -0.00000000	     -0.00000000	     -0.01113513	     -0.73007805	      8.30568666	     -0.00000000	     -2.09263023	     -7.63768171	      1.93584383
      0.98500000	      1.24097284	      8.09470528	      2.38094296	      0.73192982	      0.94097249	      0.16316546	     26.31595244	    -15.79054750	     -4.91853703	    -36.97849216	      8.38853744	     -0.00000000	     -0.00000000	     -0.64539644	     -0.44013573	     -5.27389791	     -0.00000000	    -12.71313223	      8.79510137	    -15.64687215	     -0.67273915	      2.21605702	     -0.00000000	     -0.00000000	     -0.01174151	     -0.53308639	      8.63615426	      0.00000000	     -1.83664719	     -8.05845073	      1.62020857
      0.99000000	      1.14549350	      8.18735958	      2.83730717	      0.73816158	      0.94014475	      0.16194976	     26.33512931	    -15.98127146	     -5.68262646	    -35.18303600	      8.08816275	     -0.00000000	     -0.00000000	     -0.61405982	     -0.45265635	     -5.33972394	      0.00000000	    -13.13098640	      8.92553111	    -15.17988346	     -0.52679175	      2.06638240	      0.00000000	      0.00000000	     -0.00919425	     -0.46059939	      8.65858716	      0.00000000	     -1.84383483	     -8.00169102	      1.28690980
      0.99500000	      0.90436156	      8.44162254	      3.21758116	      0.74438693	      0.93890499	      0.16093226	     26.63537280	    -16.32359723	     -6.29212326	    -33.55524774	      7.80416851	     -0.00000000	     -0.00000000	     -0.58564955	     -0.37745712	     -5.34323081	      0.00000000	    -13.37011737	      9.25369177	    -14.80616351	     -0.44149070	      1.88117552	      0.00000000	      0.00000000	     -0.00770547	     -0.35343742	      8.74681008	     -0.00000000	     -1.65608799	     -8.34855485	      0.76114217
